HIERARCHY
ROOT Hips
{
 OFFSET 0.000000 0.000000 0.000000
 CHANNELS 6 Xposition Yposition Zposition Yrotation Xrotation Zrotation
 JOINT Chest
 {
  OFFSET 0.000000 9.585900 0.002600
  CHANNELS 3 Yrotation Xrotation Zrotation
  JOINT Chest2
  {
   OFFSET 0.000000 9.601200 -0.005300
   CHANNELS 3 Yrotation Xrotation Zrotation
   JOINT Chest3
   {
    OFFSET 0.000000 9.561800 0.000000
    CHANNELS 3 Yrotation Xrotation Zrotation
    JOINT Chest4
    {
     OFFSET 0.000000 9.552100 0.000000
     CHANNELS 3 Yrotation Xrotation Zrotation
     JOINT Neck
     {
      OFFSET 0.000000 14.453000 0.000000
      CHANNELS 3 Yrotation Xrotation Zrotation
      JOINT Head
      {
       OFFSET 0.000000 8.936500 -0.011300
       CHANNELS 3 Yrotation Xrotation Zrotation
       End Site
       {
        OFFSET 0.000000 17.073600 -0.006000
       }
      }
     }
     JOINT RightCollar
     {
      OFFSET -2.921100 9.558500 0.000000
      CHANNELS 3 Yrotation Xrotation Zrotation
      JOINT RightShoulder
      {
       OFFSET -13.519700 0.000000 0.000000
       CHANNELS 3 Yrotation Xrotation Zrotation
       JOINT RightElbow
       {
        OFFSET 0.000000 -29.696600 0.000000
        CHANNELS 3 Yrotation Xrotation Zrotation
        JOINT RightWrist
        {
         OFFSET 0.000000 -24.004700 0.000000
         CHANNELS 3 Yrotation Xrotation Zrotation
         End Site
         {
          OFFSET 0.000000 -17.728500 0.000000
         }
        }
       }
      }
     }
     JOINT LeftCollar
     {
      OFFSET 2.921100 9.558500 0.000000
      CHANNELS 3 Yrotation Xrotation Zrotation
      JOINT LeftShoulder
      {
       OFFSET 13.519700 0.000000 0.000000
       CHANNELS 3 Yrotation Xrotation Zrotation
       JOINT LeftElbow
       {
        OFFSET 0.000000 -29.696600 0.000000
        CHANNELS 3 Yrotation Xrotation Zrotation
        JOINT LeftWrist
        {
         OFFSET 0.000000 -24.004700 0.000000
         CHANNELS 3 Yrotation Xrotation Zrotation
         End Site
         {
          OFFSET 0.000000 -17.728500 0.000000
         }
        }
       }
      }
     }
    }
   }
  }
 }
 JOINT RightHip
 {
  OFFSET -7.771700 -0.012900 -0.001300
  CHANNELS 3 Yrotation Xrotation Zrotation
  JOINT RightKnee
  {
   OFFSET 0.000000 -40.869800 0.001200
   CHANNELS 3 Yrotation Xrotation Zrotation
   JOINT RightAnkle
   {
    OFFSET 0.000000 -39.717900 0.002100
    CHANNELS 3 Yrotation Xrotation Zrotation
    JOINT RightToe
    {
     OFFSET 0.000000 -4.965400 11.033500
     CHANNELS 3 Yrotation Xrotation Zrotation
     End Site
     {
      OFFSET 0.000000 -1.423100 5.872300
     }
    }
   }
  }
 }
 JOINT LeftHip
 {
  OFFSET 7.771700 -0.012900 -0.001300
  CHANNELS 3 Yrotation Xrotation Zrotation
  JOINT LeftKnee
  {
   OFFSET 0.000000 -40.869800 0.001200
   CHANNELS 3 Yrotation Xrotation Zrotation
   JOINT LeftAnkle
   {
    OFFSET 0.000000 -39.717900 0.002100
    CHANNELS 3 Yrotation Xrotation Zrotation
    JOINT LeftToe
    {
     OFFSET 0.000000 -4.965400 11.033500
     CHANNELS 3 Yrotation Xrotation Zrotation
     End Site
     {
      OFFSET 0.000000 -1.423100 5.872300
     }
    }
   }
  }
 }
}
MOTION
Frames: 13
Frame Time: 0.008333
0.000000 85.388000 0.000000 0.000000 -5.767877 0.000000 0.000000 11.653817 0.000000 0.000000 -5.885947 0.000000 0.000000 -0.000000 0.000000 0.000000 -0.000000 0.000000 0.000000 12.528835 0.000000 0.000000 0.711642 0.000000 0.000000 -0.000000 0.000000 0.000000 0.000000 -90.000000 0.000000 -2.309062 0.000000 0.000000 2.309062 0.000000 0.000000 -0.000000 0.000000 0.000000 -0.000000 90.000000 0.000000 -2.309062 0.000000 0.000000 2.309062 0.000000 0.000000 8.520406 0.000000 0.000000 1.905762 0.000000 -0.000000 -4.658285 0.000000 0.000000 -0.000000 0.000000 0.000000 8.520406 0.000000 0.000000 1.905762 0.000000 -0.000000 -4.658285 0.000000 0.000000 -0.000000 0.000000
-220.110060 57.537812 -73.424121 160.053381 -8.091965 0.253057 3.459169 7.043765 0.529276 0.135786 0.320317 -0.026093 0.269366 0.567520 -0.022225 3.060076 6.633264 -0.169521 1.208970 18.472465 -1.378709 2.631286 -1.359817 -2.944886 1.692209 9.198554 1.729210 -1.028950 -6.814366 -11.995151 -105.383629 -86.097855 127.291613 -3.276671 4.879049 -35.273939 -5.174139 10.284881 -2.421573 15.549124 -6.176022 4.077727 84.827095 -80.035585 -110.376251 -0.230294 5.246810 16.889294 -19.745825 -63.701839 9.484543 -29.598951 73.729896 -29.477078 -2.718379 -7.990614 -2.990045 -0.249686 0.750449 -0.141038 -0.260412 -66.524646 16.341401 41.514437 66.187536 34.550402 -18.254499 -10.969857 2.960094 -0.178052 -0.814504 -0.089534
-220.118061 57.537670 -73.406743 160.010857 -8.102382 0.246759 3.487965 7.050144 0.530997 0.140530 0.321581 -0.024721 0.272504 0.569658 -0.019500 3.062154 6.639415 -0.173910 1.203480 18.506002 -1.381426 2.641054 -1.314925 -2.939756 1.670943 9.242449 1.712416 -1.041963 -6.810547 -11.966668 -105.271203 -86.110050 127.207390 -3.273859 4.937700 -35.241442 -5.184204 10.313674 -2.436715 15.543718 -6.170418 4.067395 84.725308 -80.041063 -110.238491 -0.223320 5.251682 16.882711 -19.760569 -63.694171 9.544576 -29.562736 73.702382 -29.454187 -2.722028 -7.936437 -2.997381 -0.240829 0.718323 -0.127568 -0.243635 -66.514258 16.364751 41.480161 66.180020 34.518293 -18.255851 -10.988864 2.966381 -0.158975 -0.794281 -0.091489
-220.132991 57.536060 -73.376324 160.048044 -8.042723 0.239005 3.437686 6.985592 0.517467 0.150807 0.325503 -0.016740 0.258707 0.569996 -0.034596 3.077441 6.645131 -0.165490 1.201237 18.530109 -1.385962 2.648387 -1.321678 -2.933174 1.620721 9.313301 1.668765 -1.024670 -6.845333 -11.913959 -104.854523 -86.127166 126.814652 -3.269653 4.965896 -35.221189 -5.197064 10.340036 -2.446645 15.548542 -6.155525 4.047919 84.300968 -80.025029 -109.786018 -0.252499 5.209406 16.871231 -19.863096 -63.752110 9.615981 -29.512688 73.668364 -29.408617 -2.722821 -7.901411 -2.991704 -0.237482 0.715476 -0.134364 -0.289714 -66.579204 16.356113 41.372390 66.144405 34.415194 -18.237948 -10.939079 2.964724 -0.197238 -0.834330 -0.095643
-220.147484 57.535067 -73.346609 159.989098 -7.998791 0.242831 3.485099 6.939762 0.506931 0.151308 0.326704 -0.017170 0.264481 0.571368 -0.029281 3.073735 6.657669 -0.178641 1.197777 18.550701 -1.399862 2.665070 -1.341083 -2.913423 1.624241 9.309916 1.678987 -1.028587 -6.842115 -11.904685 -103.863840 -86.146611 125.831579 -3.263788 4.978543 -35.209004 -5.198250 10.360184 -2.446204 15.558469 -6.092830 4.002711 84.269886 -80.048170 -109.740253 -0.258578 5.185876 16.865338 -19.863973 -63.792547 9.681311 -29.433248 73.604213 -29.328987 -2.723912 -7.832278 -3.004819 -0.230252 0.706782 -0.129771 -0.251207 -66.627040 16.357659 41.348722 66.120189 34.394065 -18.223024 -10.920351 2.964441 -0.211160 -0.832395 -0.101403
-220.160722 57.535761 -73.326435 159.966209 -8.016366 0.255281 3.492535 6.953931 0.486805 0.139095 0.324341 -0.025413 0.278374 0.577150 -0.021786 3.079089 6.669513 -0.183111 1.203062 18.556029 -1.399508 2.675161 -1.315685 -2.928039 1.595637 9.336706 1.660335 -1.049340 -6.822351 -11.856406 -103.479820 -86.163790 125.486658 -3.256944 4.989958 -35.195419 -5.197422 10.408382 -2.461750 15.569649 -6.081849 3.971981 84.332088 -80.073249 -109.800752 -0.235546 5.193785 16.860352 -19.832562 -63.781285 9.671355 -29.394437 73.570938 -29.295208 -2.731722 -7.797946 -3.011704 -0.220885 0.705423 -0.126514 -0.250896 -66.613543 16.332859 41.397594 66.087176 34.439197 -18.158710 -10.895658 2.972015 -0.235183 -0.864324 -0.118031
-220.168846 57.536871 -73.306473 159.885068 -8.044513 0.250858 3.562005 6.977133 0.494222 0.139828 0.323656 -0.023080 0.267079 0.577240 -0.031040 3.095634 6.684478 -0.182761 1.212910 18.554862 -1.391305 2.685939 -1.263516 -2.936082 1.569802 9.366429 1.636790 -1.122229 -6.753123 -11.773291 -103.913401 -86.187179 125.989224 -3.250446 4.998236 -35.176533 -5.183092 10.428381 -2.455930 15.570839 -6.081989 3.954974 84.383641 -80.085918 -109.855873 -0.180134 5.233487 16.852112 -19.781093 -63.751503 9.703496 -29.353978 73.539478 -29.258761 -2.693903 -7.800847 -3.004762 -0.255591 0.742577 -0.143416 -0.237473 -66.584665 16.378086 41.430403 66.068550 34.463512 -18.083100 -10.840352 2.990892 -0.277470 -0.962784 -0.135490
-220.179593 57.537592 -73.284869 159.873054 -8.052926 0.253285 3.559338 6.979930 0.487389 0.142059 0.322619 -0.023430 0.273961 0.581710 -0.028862 3.090575 6.693955 -0.191897 1.224294 18.559214 -1.385480 2.693023 -1.193778 -2.935988 1.512130 9.427050 1.579508 -1.133962 -6.733337 -11.677013 -103.877255 -86.206264 125.992572 -3.247166 5.004721 -35.162145 -5.163736 10.451471 -2.447452 15.589873 -6.026799 3.895075 84.344049 -80.104399 -109.832186 -0.168012 5.222053 16.824551 -19.773131 -63.745556 9.711528 -29.318418 73.506802 -29.226120 -2.695124 -7.765889 -3.004394 -0.246825 0.734013 -0.137176 -0.257111 -66.571863 16.387358 41.414018 66.040187 34.436284 -18.073094 -10.834431 3.009106 -0.284779 -0.966000 -0.151396
-220.186190 57.538493 -73.264835 159.859385 -8.070213 0.242567 3.565829 6.988205 0.494658 0.136327 0.325063 -0.021873 0.284294 0.584344 -0.028044 3.087493 6.698130 -0.199310 1.230288 18.588968 -1.383967 2.692913 -1.132699 -2.926977 1.473281 9.471358 1.543063 -1.151198 -6.699310 -11.604459 -103.702411 -86.220638 125.844257 -3.248705 5.010212 -35.158220 -5.144687 10.478620 -2.435210 15.618457 -5.957510 3.827213 83.928139 -80.073727 -109.453535 -0.213620 5.155065 16.798250 -19.773918 -63.724432 9.736266 -29.290826 73.473295 -29.199828 -2.694385 -7.731166 -3.001273 -0.247229 0.728395 -0.139782 -0.290203 -66.552695 16.423584 41.378724 66.016308 34.405423 -18.082944 -10.822480 2.995438 -0.269460 -0.973937 -0.140631
-220.192922 57.538935 -73.244293 159.941544 -8.073497 0.225873 3.460198 6.982206 0.492078 0.146920 0.331612 -0.018838 0.280616 0.580546 -0.030539 3.088914 6.704507 -0.201560 1.235395 18.623079 -1.383261 2.696981 -1.099980 -2.921660 1.455070 9.502228 1.513251 -1.178604 -6.644666 -11.539698 -103.660444 -86.231999 125.825992 -3.222391 4.972362 -35.143661 -5.118544 10.496847 -2.427205 15.629859 -5.933430 3.796366 83.483334 -80.022009 -109.036619 -0.219268 5.117916 16.781974 -19.862150 -63.719547 9.750064 -29.274554 73.453771 -29.182891 -2.718616 -7.667350 -3.006577 -0.225953 0.681115 -0.132654 -0.398852 -66.546463 16.439142 41.316150 65.969635 34.348969 -18.144740 -10.848860 2.963140 -0.212909 -0.915984 -0.109365
-220.197062 57.540149 -73.232473 159.924264 -8.117884 0.234677 3.470202 7.026074 0.486680 0.143676 0.332576 -0.018371 0.278132 0.580190 -0.031638 3.091294 6.709981 -0.199291 1.233930 18.651533 -1.381879 2.702950 -1.111888 -2.927104 1.430109 9.523569 1.480948 -1.208564 -6.581874 -11.479022 -103.734800 -86.240038 125.921927 -3.234418 4.994858 -35.153317 -5.106082 10.497038 -2.427722 15.684835 -5.830145 3.731646 83.513895 -80.020668 -109.131829 -0.209621 5.095755 16.758602 -19.799749 -63.679744 9.706048 -29.255917 73.437061 -29.163649 -2.714558 -7.656187 -3.006204 -0.225456 0.684262 -0.129319 -0.403806 -66.497593 16.441402 41.339948 65.951719 34.362117 -18.139428 -10.846691 2.971207 -0.241490 -0.926314 -0.118908
-220.201278 57.539844 -73.213884 159.912802 -8.108748 0.237213 3.463111 7.018178 0.482531 0.158618 0.331779 -0.017946 0.259226 0.585332 -0.032469 3.106070 6.709589 -0.198269 1.225944 18.672386 -1.379168 2.686974 -1.073671 -2.919076 1.405702 9.540193 1.456309 -1.210748 -6.557738 -11.443208 -103.160290 -86.245449 125.341736 -3.243753 5.011911 -35.159728 -5.083499 10.514106 -2.426981 15.730165 -5.738869 3.665871 83.572031 -80.016033 -109.260685 -0.202219 5.075576 16.726151 -19.794388 -63.686202 9.732299 -29.243617 73.406166 -29.156911 -2.735097 -7.641794 -3.005475 -0.211442 0.689501 -0.116814 -0.463250 -66.497916 16.478314 41.344428 65.915379 34.357050 -18.123019 -10.825275 2.965020 -0.264432 -0.935931 -0.128383
-220.202956 57.538686 -73.193178 159.901098 -8.076623 0.228294 3.470996 6.986312 0.490218 0.154228 0.333081 -0.018553 0.262955 0.585550 -0.031784 3.108930 6.714928 -0.201320 1.190640 18.690460 -1.373470 2.683478 -1.066268 -2.917917 1.379938 9.552556 1.442339 -1.265282 -6.464182 -11.385763 -103.858461 -86.256203 126.067507 -3.244791 5.005627 -35.160184 -5.061739 10.522151 -2.420102 15.765135 -5.658775 3.618006 83.539700 -79.996527 -109.293630 -0.194601 5.059644 16.687869 -19.830688 -63.712593 9.796326 -29.205868 73.376655 -29.124717 -2.730360 -7.608866 -2.999475 -0.220051 0.684789 -0.120872 -0.491961 -66.527668 16.511985 41.300728 65.881858 34.325874 -18.166607 -10.800565 2.957069 -0.213935 -0.935850 -0.128967
